<svg xmlns="http://www.w3.org/2000/svg" version="1.1" xmlns:xlink="http://www.w3.org/1999/xlink" xmlns:svgjs="http://svgjs.dev/svgjs" width="1000" height="1000" viewBox="0 0 1000 1000"><rect width="1000" height="1000" fill="#ffffff"></rect><g transform="matrix(0.7,0,0,0.7,149.57575757575756,429.1023172163769)"><svg viewBox="0 0 396 80" data-background-color="#ffffff" preserveAspectRatio="xMidYMid meet" height="202" width="1000" xmlns="http://www.w3.org/2000/svg" xmlns:xlink="http://www.w3.org/1999/xlink"><g id="tight-bounds" transform="matrix(1,0,0,1,0.2400000000000091,0.11184315905126141)"><svg viewBox="0 0 395.52 79.77631368189749" height="79.77631368189749" width="395.52"><g><svg viewBox="0 0 502.4895045015105 101.35204372212213" height="79.77631368189749" width="395.52"><g transform="matrix(1,0,0,1,0,28.617025580191143)"><svg viewBox="0 0 395.52 44.11799256173985" height="44.11799256173985" width="395.52"><g id="textblocktransform"><svg viewBox="0 0 395.52 44.11799256173985" height="44.11799256173985" width="395.52" id="textblock"><g><svg viewBox="0 0 395.52 23.79513707191067" height="23.79513707191067" width="395.52"><g transform="matrix(1,0,0,1,0,0)"><svg width="395.52" viewBox="4.65 -35.5 600 36.1" height="23.79513707191067" data-palette-color="#ffa96a"><path d="M4.65 0L4.65-34.9 16.35-34.9Q19.6-34.9 22.25-33.8 24.9-32.7 26.78-30.53 28.65-28.35 29.65-25.08 30.65-21.8 30.65-17.45L30.65-17.45Q30.65-13.1 29.65-9.83 28.65-6.55 26.78-4.38 24.9-2.2 22.25-1.1 19.6 0 16.35 0L16.35 0 4.65 0ZM8.85-3.7L16.35-3.7Q18.5-3.7 20.3-4.42 22.1-5.15 23.4-6.55 24.7-7.95 25.43-9.98 26.15-12 26.15-14.6L26.15-14.6 26.15-20.3Q26.15-22.9 25.43-24.93 24.7-26.95 23.4-28.35 22.1-29.75 20.3-30.48 18.5-31.2 16.35-31.2L16.35-31.2 8.85-31.2 8.85-3.7ZM63.85 0L59.45 0 55.95-10.3 41.85-10.3 38.35 0 34.1 0 46.3-34.9 51.65-34.9 63.85 0ZM54.9-14L49-31 48.75-31 42.85-14 54.9-14ZM80.65 0L75.55 0 63.95-34.9 68.45-34.9 74.2-17.3 78.05-4.2 78.3-4.2 82.25-17.3 88.05-34.9 92.4-34.9 80.65 0ZM110.39 0L96.39 0 96.39-3.5 101.29-3.5 101.29-31.4 96.39-31.4 96.39-34.9 110.39-34.9 110.39-31.4 105.49-31.4 105.49-3.5 110.39-3.5 110.39 0ZM118.04 0L118.04-34.9 129.74-34.9Q132.99-34.9 135.64-33.8 138.29-32.7 140.17-30.53 142.04-28.35 143.04-25.08 144.04-21.8 144.04-17.45L144.04-17.45Q144.04-13.1 143.04-9.83 142.04-6.55 140.17-4.38 138.29-2.2 135.64-1.1 132.99 0 129.74 0L129.74 0 118.04 0ZM122.24-3.7L129.74-3.7Q131.89-3.7 133.69-4.42 135.49-5.15 136.79-6.55 138.09-7.95 138.82-9.98 139.54-12 139.54-14.6L139.54-14.6 139.54-20.3Q139.54-22.9 138.82-24.93 138.09-26.95 136.79-28.35 135.49-29.75 133.69-30.48 131.89-31.2 129.74-31.2L129.74-31.2 122.24-31.2 122.24-3.7ZM175.69 0.6L175.69 0.6Q169.04 0.6 165.34-3.93 161.64-8.45 161.64-17.25L161.64-17.25Q161.64-26.05 165.34-30.78 169.04-35.5 175.69-35.5L175.69-35.5Q180.09-35.5 183.06-33.5 186.04-31.5 187.69-27.85L187.69-27.85 184.29-25.8Q183.24-28.5 181.09-30.13 178.94-31.75 175.69-31.75L175.69-31.75Q173.44-31.75 171.66-30.9 169.89-30.05 168.66-28.48 167.44-26.9 166.79-24.73 166.14-22.55 166.14-19.85L166.14-19.85 166.14-14.65Q166.14-9.25 168.64-6.2 171.14-3.15 175.69-3.15L175.69-3.15Q179.04-3.15 181.29-4.88 183.54-6.6 184.59-9.45L184.59-9.45 187.94-7.35Q186.29-3.65 183.19-1.53 180.09 0.6 175.69 0.6ZM198.63-15L198.63 0 194.43 0 194.43-34.9 208.33-34.9Q212.93-34.9 215.51-32.35 218.08-29.8 218.08-25L218.08-25Q218.08-21.15 216.31-18.68 214.53-16.2 211.08-15.4L211.08-15.4 219.08 0 214.33 0 206.78-15 198.63-15ZM198.63-18.6L208.33-18.6Q210.83-18.6 212.21-19.9 213.58-21.2 213.58-23.6L213.58-23.6 213.58-26.2Q213.58-28.6 212.21-29.9 210.83-31.2 208.33-31.2L208.33-31.2 198.63-31.2 198.63-18.6ZM252.68 0L248.28 0 244.78-10.3 230.68-10.3 227.18 0 222.93 0 235.13-34.9 240.48-34.9 252.68 0ZM243.73-14L237.83-31 237.58-31 231.68-14 243.73-14ZM278.08-31.2L266.98-31.2 266.98 0 262.78 0 262.78-31.2 251.68-31.2 251.68-34.9 278.08-34.9 278.08-31.2ZM305.13 0L283.83 0 283.83-34.9 305.13-34.9 305.13-31.2 288.03-31.2 288.03-19.5 304.13-19.5 304.13-15.8 288.03-15.8 288.03-3.7 305.13-3.7 305.13 0ZM317.17-15L317.17 0 312.97 0 312.97-34.9 326.87-34.9Q331.47-34.9 334.05-32.35 336.62-29.8 336.62-25L336.62-25Q336.62-21.15 334.85-18.68 333.07-16.2 329.62-15.4L329.62-15.4 337.62 0 332.87 0 325.32-15 317.17-15ZM317.17-18.6L326.87-18.6Q329.37-18.6 330.75-19.9 332.12-21.2 332.12-23.6L332.12-23.6 332.12-26.2Q332.12-28.6 330.75-29.9 329.37-31.2 326.87-31.2L326.87-31.2 317.17-31.2 317.17-18.6ZM378.62 0L378.62-15.8 360.97-15.8 360.97 0 356.77 0 356.77-34.9 360.97-34.9 360.97-19.5 378.62-19.5 378.62-34.9 382.82-34.9 382.82 0 378.62 0ZM405.17 0.6L405.17 0.6Q401.77 0.6 399.04-0.58 396.32-1.75 394.39-4.03 392.47-6.3 391.42-9.68 390.37-13.05 390.37-17.45L390.37-17.45Q390.37-21.85 391.42-25.2 392.47-28.55 394.39-30.85 396.32-33.15 399.04-34.33 401.77-35.5 405.17-35.5L405.17-35.5Q408.52-35.5 411.27-34.33 414.02-33.15 415.94-30.85 417.87-28.55 418.92-25.2 419.97-21.85 419.97-17.45L419.97-17.45Q419.97-13.05 418.92-9.68 417.87-6.3 415.94-4.03 414.02-1.75 411.27-0.58 408.52 0.6 405.17 0.6ZM405.17-3.15L405.17-3.15Q407.42-3.15 409.32-3.95 411.22-4.75 412.59-6.25 413.97-7.75 414.72-9.85 415.47-11.95 415.47-14.55L415.47-14.55 415.47-20.35Q415.47-22.95 414.72-25.05 413.97-27.15 412.59-28.65 411.22-30.15 409.32-30.95 407.42-31.75 405.17-31.75L405.17-31.75Q402.92-31.75 401.02-30.95 399.12-30.15 397.74-28.65 396.37-27.15 395.62-25.05 394.87-22.95 394.87-20.35L394.87-20.35 394.87-14.55Q394.87-11.95 395.62-9.85 396.37-7.75 397.74-6.25 399.12-4.75 401.02-3.95 402.92-3.15 405.17-3.15ZM454.71 0L454.71-29.4 454.46-29.4 451.51-23.55 443.16-8.35 434.81-23.55 431.86-29.4 431.61-29.4 431.61 0 427.51 0 427.51-34.9 433.11-34.9 443.11-16.1 443.36-16.1 453.41-34.9 458.81-34.9 458.81 0 454.71 0ZM489.41 0L468.11 0 468.11-34.9 489.41-34.9 489.41-31.2 472.31-31.2 472.31-19.5 488.41-19.5 488.41-15.8 472.31-15.8 472.31-3.7 489.41-3.7 489.41 0ZM507.06 0.6L507.06 0.6Q502.81 0.6 499.81-1.03 496.81-2.65 494.71-5.5L494.71-5.5 497.81-8.1Q499.66-5.65 501.91-4.38 504.16-3.1 507.21-3.1L507.21-3.1Q510.96-3.1 512.93-4.9 514.91-6.7 514.91-9.7L514.91-9.7Q514.91-12.2 513.41-13.55 511.91-14.9 508.46-15.7L508.46-15.7 505.61-16.35Q500.81-17.45 498.28-19.68 495.76-21.9 495.76-25.95L495.76-25.95Q495.76-28.25 496.61-30.05 497.46-31.85 498.98-33.05 500.51-34.25 502.63-34.88 504.76-35.5 507.31-35.5L507.31-35.5Q511.26-35.5 514.08-34.05 516.91-32.6 518.86-29.8L518.86-29.8 515.71-27.5Q514.26-29.5 512.21-30.65 510.16-31.8 507.11-31.8L507.11-31.8Q503.76-31.8 501.83-30.38 499.91-28.95 499.91-26.1L499.91-26.1Q499.91-23.6 501.53-22.33 503.16-21.05 506.46-20.3L506.46-20.3 509.31-19.65Q514.46-18.5 516.76-16.15 519.06-13.8 519.06-9.9L519.06-9.9Q519.06-7.5 518.23-5.55 517.41-3.6 515.86-2.25 514.31-0.9 512.08-0.15 509.86 0.6 507.06 0.6ZM548.5-31.2L537.4-31.2 537.4 0 533.21 0 533.21-31.2 522.11-31.2 522.11-34.9 548.5-34.9 548.5-31.2ZM577.25 0L572.85 0 569.35-10.3 555.25-10.3 551.75 0 547.5 0 559.7-34.9 565.05-34.9 577.25 0ZM568.3-14L562.4-31 562.15-31 556.25-14 568.3-14ZM592.5 0L588.3 0 588.3-13.8 576.3-34.9 581.1-34.9 590.4-18.1 590.55-18.1 599.85-34.9 604.65-34.9 592.5-13.95 592.5 0Z" opacity="1" transform="matrix(1,0,0,1,0,0)" fill="#ffa96a" class="wordmark-text-0" data-fill-palette-color="primary" id="text-0"></path></svg></g></svg></g><g transform="matrix(1,0,0,1,284.709445961408,29.412597851299054)"><svg viewBox="0 0 110.81055403859197 14.705394710440794" height="14.705394710440794" width="110.81055403859197"><g transform="matrix(1,0,0,1,0,0)"><svg width="110.81055403859197" viewBox="2.85 -35.35 271.63 36.050000000000004" height="14.705394710440794" data-palette-color="#e65728"><path d="M16.9 0.65Q10.15 0.65 6.5-3.98 2.85-8.6 2.85-17.3L2.85-17.3Q2.85-26 6.55-30.68 10.25-35.35 17.05-35.35L17.05-35.35Q19.6-35.35 21.93-34.68 24.25-34 25.65-32.8 27.05-31.6 27.05-30.2L27.05-30.2Q27.05-29.05 26.05-28.28 25.05-27.5 23.35-27.55L23.35-27.55Q23-30.4 21.35-31.9 19.7-33.4 17.15-33.4L17.15-33.4Q7.9-33.4 7.9-17.35L7.9-17.35Q7.9-1.3 17.1-1.3L17.1-1.3Q21.15-1.3 22.65-4.25 24.15-7.2 24.15-11.05L24.15-11.05Q24.15-16.95 20.6-17.9L20.6-17.9Q20.85-18.7 21.65-19.1 22.45-19.5 23.55-19.5L23.55-19.5Q25.85-19.5 27.35-17.68 28.85-15.85 28.85-12L28.85-12Q28.85-8.45 27.5-5.58 26.15-2.7 23.45-1.03 20.75 0.65 16.9 0.65L16.9 0.65ZM58.3-3.65Q58.85-2.9 58.85-2L58.85-2Q58.85-0.85 58.02-0.18 57.2 0.5 55.7 0.5L55.7 0.5Q53.7 0.5 52.62-0.85 51.55-2.2 51.55-4.85L51.55-4.85 51.55-5.5Q50.55-2.55 48.37-0.93 46.2 0.7 43.2 0.7L43.2 0.7Q39.1 0.7 37.22-1.7 35.35-4.1 35.35-9.75L35.35-9.75 35.35-19.55Q35.35-23.05 34.65-25.1L34.65-25.1Q35.9-26.15 37.25-26.15L37.25-26.15Q38.4-26.15 39.12-25.48 39.85-24.8 39.85-23.65L39.85-23.65 39.85-10.35Q39.85-5.65 40.9-3.68 41.95-1.7 44.55-1.7L44.55-1.7Q46.25-1.7 47.72-2.95 49.2-4.2 50.15-6.85 51.1-9.5 51.1-13.55L51.1-13.55Q51.1-19.8 51-21.73 50.9-23.65 50.35-25.15L50.35-25.15Q51.5-26.15 52.95-26.15L52.95-26.15Q54.05-26.15 54.8-25.43 55.55-24.7 55.55-23.45L55.55-23.45 55.6-5.5Q55.6-4.1 55.92-3.53 56.25-2.95 56.95-2.95L56.95-2.95Q57.9-2.95 58.3-3.65L58.3-3.65ZM82.65-6.6Q83.4-6.3 83.4-5.45L83.4-5.45Q83.4-4.9 83.05-4.05L83.05-4.05Q82.15-1.75 79.75-0.55 77.34 0.65 74.05 0.65L74.05 0.65Q68.5 0.65 65.32-2.8 62.15-6.25 62.15-12.65L62.15-12.65Q62.15-18.95 65.3-22.55 68.45-26.15 74.25-26.15L74.25-26.15Q78.45-26.15 81.02-24.25 83.59-22.35 83.59-18.85L83.59-18.85Q83.59-15.15 80.59-13.2 77.59-11.25 72.34-11.25L72.34-11.25Q69.7-11.25 67.05-11.55L67.05-11.55Q67.64-2.35 75.2-2.35L75.2-2.35Q77.9-2.35 79.87-3.48 81.84-4.6 82.65-6.6L82.65-6.6ZM74.05-24.25Q70.8-24.25 68.92-21.45 67.05-18.65 67-13.4L67-13.4Q68.05-13.3 70.34-13.2L70.34-13.2Q74.15-13.2 76.45-14.58 78.75-15.95 78.75-19.5L78.75-19.5Q78.75-22.1 77.4-23.18 76.05-24.25 74.05-24.25L74.05-24.25ZM96.94 0.65Q92.24 0.65 89.89-1 87.54-2.65 87.54-5.35L87.54-5.35Q87.54-6.65 88.22-7.5 88.89-8.35 90.34-8.35L90.34-8.35Q90.59-8.35 91.19-8.25L91.19-8.25Q91.04-7.6 91.04-7L91.04-7Q91.04-6.4 91.09-6.05L91.09-6.05Q91.24-3.9 92.89-2.63 94.54-1.35 97.39-1.35L97.39-1.35Q100.04-1.35 101.67-2.33 103.29-3.3 103.29-5.1L103.29-5.1Q103.29-6.35 102.62-7.23 101.94-8.1 100.92-8.7 99.89-9.3 98.04-10.15L98.04-10.15 96.49-10.85Q93.74-12.15 92.24-13.08 90.74-14 89.64-15.6 88.54-17.2 88.54-19.55L88.54-19.55Q88.54-22.9 91.12-24.55 93.69-26.2 97.69-26.2L97.69-26.2Q101.84-26.2 104.19-24.9 106.54-23.6 106.54-21.2L106.54-21.2Q106.54-20.2 106.02-19.53 105.49-18.85 104.39-18.75L104.39-18.75Q104.14-18.7 103.69-18.7L103.69-18.7Q103.19-18.7 102.89-18.8L102.89-18.8Q102.94-19.05 102.94-19.7L102.94-19.7Q102.94-20.5 102.74-21.05L102.74-21.05Q102.54-22.6 101.17-23.43 99.79-24.25 97.54-24.25L97.54-24.25Q95.44-24.25 94.07-23.45 92.69-22.65 92.69-20.95L92.69-20.95Q92.69-19.5 93.52-18.45 94.34-17.4 95.49-16.73 96.64-16.05 99.04-14.9L99.04-14.9 99.99-14.45Q102.49-13.25 103.97-12.35 105.44-11.45 106.49-10.05 107.54-8.65 107.54-6.65L107.54-6.65Q107.54-3.65 105.02-1.5 102.49 0.65 96.94 0.65L96.94 0.65ZM120.04-25.45Q120.89-25.45 122.34-25.5 123.79-25.55 124.64-25.6L124.64-25.6 124.59-24.4Q124.54-23.8 124.19-23.48 123.84-23.15 123.34-23.15L123.34-23.15 118.39-23.15 118.39-21.35 118.34-5.65Q118.34-2.95 120.74-2.95L120.74-2.95Q121.44-2.95 122.12-3.2 122.79-3.45 122.99-3.9L122.99-3.9Q123.59-3.1 123.59-2.2L123.59-2.2Q123.59-0.95 122.34-0.2 121.09 0.55 119.09 0.55L119.09 0.55Q116.64 0.55 115.24-1 113.84-2.55 113.84-5.3L113.84-5.3 113.84-23.15 113.09-23.15Q111.09-23.15 110.09-23L110.09-23 110.14-24.25Q110.19-24.85 110.54-25.15 110.89-25.45 111.44-25.45L111.44-25.45 113.84-25.45 113.84-29.65Q113.84-30.8 114.57-31.45 115.29-32.1 116.49-32.1L116.49-32.1Q117.89-32.1 119.04-31.1L119.04-31.1Q118.49-29.2 118.44-25.45L118.44-25.45 120.04-25.45ZM166.74-6Q166.74-2.3 167.44-0.45L167.44-0.45Q167.04-0.05 166.34 0.28 165.64 0.6 164.79 0.6L164.79 0.6Q163.64 0.6 162.91-0.08 162.19-0.75 162.19-1.9L162.19-1.9 162.14-16.95 146.54-16.95 146.54-6Q146.54-2.3 147.24-0.45L147.24-0.45Q146.04 0.6 144.59 0.6L144.59 0.6Q143.39 0.6 142.66-0.08 141.94-0.75 141.94-1.9L141.94-1.9 141.94-28.6Q141.94-32.1 141.24-34.2L141.24-34.2Q141.64-34.6 142.31-34.9 142.99-35.2 143.84-35.2L143.84-35.2Q145.04-35.2 145.79-34.55 146.54-33.9 146.54-32.75L146.54-32.75 146.54-19.6 162.14-19.6 162.14-28.6Q162.14-32.3 161.44-34.2L161.44-34.2Q162.54-35.2 164.09-35.2L164.09-35.2Q165.24-35.2 165.99-34.55 166.74-33.9 166.74-32.75L166.74-32.75 166.74-6ZM185.18 0.65Q179.68 0.65 176.61-2.88 173.53-6.4 173.53-12.7L173.53-12.7Q173.53-19.05 176.61-22.6 179.68-26.15 185.18-26.15L185.18-26.15Q190.68-26.15 193.73-22.6 196.78-19.05 196.78-12.7L196.78-12.7Q196.78-6.4 193.73-2.88 190.68 0.65 185.18 0.65L185.18 0.65ZM185.18-1.25Q188.48-1.25 190.21-4.2 191.93-7.15 191.93-12.7L191.93-12.7Q191.93-18.35 190.21-21.3 188.48-24.25 185.18-24.25L185.18-24.25Q181.83-24.25 180.11-21.3 178.38-18.35 178.38-12.7L178.38-12.7Q178.38-7.15 180.11-4.2 181.83-1.25 185.18-1.25L185.18-1.25ZM225.68-3.65Q226.23-2.9 226.23-2L226.23-2Q226.23-0.85 225.41-0.18 224.58 0.5 223.08 0.5L223.08 0.5Q221.08 0.5 220-0.85 218.93-2.2 218.93-4.85L218.93-4.85 218.93-5.5Q217.93-2.55 215.75-0.93 213.58 0.7 210.58 0.7L210.58 0.7Q206.48 0.7 204.61-1.7 202.73-4.1 202.73-9.75L202.73-9.75 202.73-19.55Q202.73-23.05 202.03-25.1L202.03-25.1Q203.28-26.15 204.63-26.15L204.63-26.15Q205.78-26.15 206.5-25.48 207.23-24.8 207.23-23.65L207.23-23.65 207.23-10.35Q207.23-5.65 208.28-3.68 209.33-1.7 211.93-1.7L211.93-1.7Q213.63-1.7 215.11-2.95 216.58-4.2 217.53-6.85 218.48-9.5 218.48-13.55L218.48-13.55Q218.48-19.8 218.38-21.73 218.28-23.65 217.73-25.15L217.73-25.15Q218.88-26.15 220.33-26.15L220.33-26.15Q221.43-26.15 222.18-25.43 222.93-24.7 222.93-23.45L222.93-23.45 222.98-5.5Q222.98-4.1 223.31-3.53 223.63-2.95 224.33-2.95L224.33-2.95Q225.28-2.95 225.68-3.65L225.68-3.65ZM238.63 0.65Q233.93 0.65 231.58-1 229.23-2.65 229.23-5.35L229.23-5.35Q229.23-6.65 229.9-7.5 230.58-8.35 232.03-8.35L232.03-8.35Q232.28-8.35 232.88-8.25L232.88-8.25Q232.73-7.6 232.73-7L232.73-7Q232.73-6.4 232.78-6.05L232.78-6.05Q232.93-3.9 234.58-2.63 236.23-1.35 239.08-1.35L239.08-1.35Q241.73-1.35 243.35-2.33 244.98-3.3 244.98-5.1L244.98-5.1Q244.98-6.35 244.3-7.23 243.63-8.1 242.6-8.7 241.58-9.3 239.73-10.15L239.73-10.15 238.18-10.85Q235.43-12.15 233.93-13.08 232.43-14 231.33-15.6 230.23-17.2 230.23-19.55L230.23-19.55Q230.23-22.9 232.8-24.55 235.38-26.2 239.38-26.2L239.38-26.2Q243.53-26.2 245.88-24.9 248.23-23.6 248.23-21.2L248.23-21.2Q248.23-20.2 247.7-19.53 247.18-18.85 246.08-18.75L246.08-18.75Q245.83-18.7 245.38-18.7L245.38-18.7Q244.88-18.7 244.58-18.8L244.58-18.8Q244.63-19.05 244.63-19.7L244.63-19.7Q244.63-20.5 244.43-21.05L244.43-21.05Q244.23-22.6 242.85-23.43 241.48-24.25 239.23-24.25L239.23-24.25Q237.13-24.25 235.75-23.45 234.38-22.65 234.38-20.95L234.38-20.95Q234.38-19.5 235.2-18.45 236.03-17.4 237.18-16.73 238.33-16.05 240.73-14.9L240.73-14.9 241.68-14.45Q244.18-13.25 245.65-12.35 247.13-11.45 248.18-10.05 249.23-8.65 249.23-6.65L249.23-6.65Q249.23-3.65 246.7-1.5 244.18 0.65 238.63 0.65L238.63 0.65ZM273.53-6.6Q274.28-6.3 274.28-5.45L274.28-5.45Q274.28-4.9 273.93-4.05L273.93-4.05Q273.03-1.75 270.63-0.55 268.23 0.65 264.93 0.65L264.93 0.65Q259.38 0.65 256.2-2.8 253.03-6.25 253.03-12.65L253.03-12.65Q253.03-18.95 256.18-22.55 259.32-26.15 265.13-26.15L265.13-26.15Q269.32-26.15 271.9-24.25 274.48-22.35 274.48-18.85L274.48-18.85Q274.48-15.15 271.48-13.2 268.48-11.25 263.23-11.25L263.23-11.25Q260.57-11.25 257.93-11.55L257.93-11.55Q258.53-2.35 266.07-2.35L266.07-2.35Q268.78-2.35 270.75-3.48 272.73-4.6 273.53-6.6L273.53-6.6ZM264.93-24.25Q261.68-24.25 259.8-21.45 257.93-18.65 257.88-13.4L257.88-13.4Q258.93-13.3 261.23-13.2L261.23-13.2Q265.03-13.2 267.32-14.58 269.63-15.95 269.63-19.5L269.63-19.5Q269.63-22.1 268.28-23.18 266.93-24.25 264.93-24.25L264.93-24.25Z" opacity="1" transform="matrix(1,0,0,1,0,0)" fill="#e65728" class="slogan-text-1" data-fill-palette-color="secondary" id="text-1"></path></svg></g></svg></g></svg></g></svg></g><g transform="matrix(1,0,0,1,401.1374607793884,0)"><svg viewBox="0 0 101.35204372212213 101.35204372212213" height="101.35204372212213" width="101.35204372212213"><g><svg></svg></g><g id="icon-0"><svg viewBox="0 0 101.35204372212213 101.35204372212213" height="101.35204372212213" width="101.35204372212213"><g><rect width="92.15528419918883" height="92.15528419918883" x="4.598379761466653" y="4.598379761466653" fill="#e65728" data-fill-palette-color="accent"></rect><rect width="92.15528419918883" height="92.15528419918883" x="8.881784197001252e-16" y="8.881784197001252e-16" fill="#e65728" opacity="0.5" data-fill-palette-color="accent"></rect></g><g transform="matrix(1,0,0,1,13.13822788990472,16.059176805231864)"><svg viewBox="0 0 75.0755879423127 69.2336901116584" height="69.2336901116584" width="75.0755879423127"><g><svg xmlns="http://www.w3.org/2000/svg" xmlns:xlink="http://www.w3.org/1999/xlink" version="1.1" x="0" y="0" viewBox="0.03409091278301597 3.9170000000000003 99.85290908721697 92.083" enable-background="new 0 0 100 100" xml:space="preserve" height="69.2336901116584" width="75.0755879423127" class="icon-z$-0" data-fill-palette-color="background" id="z$-0"><g fill="#ffffff" data-fill-palette-color="background"><path fill="#ffffff" d="M6.498 62H18v27.23c0 3.557 2.414 6.77 6.005 6.77h51.016C78.611 96 82 92.787 82 89.23V62h11.365c0.008 0 0.015 0 0.02 0 3.591 0 6.502-2.801 6.502-6.359 0-1.873-0.808-3.479-2.096-4.656L54.647 5.95c-1.229-1.281-2.933-2.033-4.716-2.033-1.782 0-3.062 0.672-4.29 1.953L32 20.515V11.37c0-3.396-3.337-6.15-7-6.15s-7 2.753-7 6.15v22.957L1.841 51.089c-1.789 1.866-2.313 4.735-1.286 7.101C1.58 60.555 3.899 62 6.498 62zM49.932 21.473L78.227 51h-3.206C71.431 51 68 52.179 68 55.735V83H32V55.735C32 52.179 27.596 51 24.005 51h-2.367L49.932 21.473z" data-fill-palette-color="background"></path></g></svg></g></svg></g></svg></g></svg></g></svg></g><defs></defs></svg><rect width="395.52" height="79.77631368189749" fill="none" stroke="none" visibility="hidden"></rect></g></svg></g></svg>